<svg xmlns="http://www.w3.org/2000/svg" xmlns:xlink="http://www.w3.org/1999/xlink" width="490" zoomAndPan="magnify" viewBox="0 0 367.5 145.500001" height="194" preserveAspectRatio="xMidYMid meet" version="1.0"><defs><g/></defs><g fill="#5b60ae" fill-opacity="0.6"><g transform="translate(28.812988, 114.055527)"><g><path d="M 9.828125 -9.828125 L 9.828125 -19.671875 L 0 -19.671875 L 0 -29.5 L 19.671875 -29.5 L 19.671875 -19.671875 L 49.171875 -19.671875 L 49.171875 -39.34375 L 9.828125 -39.34375 L 9.828125 -49.171875 L 0 -49.171875 L 0 -68.84375 L 9.828125 -68.84375 L 9.828125 -78.671875 L 59 -78.671875 L 59 -68.84375 L 68.84375 -68.84375 L 68.84375 -59 L 49.171875 -59 L 49.171875 -68.84375 L 19.671875 -68.84375 L 19.671875 -49.171875 L 59 -49.171875 L 59 -39.34375 L 68.84375 -39.34375 L 68.84375 -19.671875 L 59 -19.671875 L 59 -9.828125 Z M 9.828125 -9.828125 "/></g></g></g><g fill="#5b60ae" fill-opacity="0.6"><g transform="translate(107.48006, 114.055527)"><g><path d="M 9.828125 -9.828125 L 9.828125 -19.671875 L 0 -19.671875 L 0 -68.84375 L 9.828125 -68.84375 L 9.828125 -78.671875 L 59 -78.671875 L 59 -68.84375 L 68.84375 -68.84375 L 68.84375 -19.671875 L 59 -19.671875 L 59 -9.828125 Z M 19.671875 -19.671875 L 49.171875 -19.671875 L 49.171875 -68.84375 L 19.671875 -68.84375 Z M 19.671875 -19.671875 "/></g></g></g><g fill="#5b60ae" fill-opacity="0.6"><g transform="translate(186.147132, 114.055527)"><g><path d="M 9.828125 -9.828125 L 9.828125 -78.671875 L 29.5 -78.671875 L 29.5 -19.671875 L 68.84375 -19.671875 L 68.84375 -9.828125 Z M 9.828125 -9.828125 "/></g></g></g><g fill="#5b60ae" fill-opacity="0.6"><g transform="translate(264.814204, 114.055527)"><g><path d="M 9.828125 -9.828125 L 9.828125 -19.671875 L 29.5 -19.671875 L 29.5 -68.84375 L 9.828125 -68.84375 L 9.828125 -78.671875 L 68.84375 -78.671875 L 68.84375 -68.84375 L 49.171875 -68.84375 L 49.171875 -19.671875 L 68.84375 -19.671875 L 68.84375 -9.828125 Z M 9.828125 -9.828125 "/></g></g></g><g fill="#2f3699" fill-opacity="1"><g transform="translate(23.250222, 108.492759)"><g><path d="M 9.828125 -9.828125 L 9.828125 -19.671875 L 0 -19.671875 L 0 -29.5 L 19.671875 -29.5 L 19.671875 -19.671875 L 49.171875 -19.671875 L 49.171875 -39.34375 L 9.828125 -39.34375 L 9.828125 -49.171875 L 0 -49.171875 L 0 -68.84375 L 9.828125 -68.84375 L 9.828125 -78.671875 L 59 -78.671875 L 59 -68.84375 L 68.84375 -68.84375 L 68.84375 -59 L 49.171875 -59 L 49.171875 -68.84375 L 19.671875 -68.84375 L 19.671875 -49.171875 L 59 -49.171875 L 59 -39.34375 L 68.84375 -39.34375 L 68.84375 -19.671875 L 59 -19.671875 L 59 -9.828125 Z M 9.828125 -9.828125 "/></g></g></g><g fill="#2f3699" fill-opacity="1"><g transform="translate(101.917294, 108.492759)"><g><path d="M 9.828125 -9.828125 L 9.828125 -19.671875 L 0 -19.671875 L 0 -68.84375 L 9.828125 -68.84375 L 9.828125 -78.671875 L 59 -78.671875 L 59 -68.84375 L 68.84375 -68.84375 L 68.84375 -19.671875 L 59 -19.671875 L 59 -9.828125 Z M 19.671875 -19.671875 L 49.171875 -19.671875 L 49.171875 -68.84375 L 19.671875 -68.84375 Z M 19.671875 -19.671875 "/></g></g></g><g fill="#2f3699" fill-opacity="1"><g transform="translate(180.584366, 108.492759)"><g><path d="M 9.828125 -9.828125 L 9.828125 -78.671875 L 29.5 -78.671875 L 29.5 -19.671875 L 68.84375 -19.671875 L 68.84375 -9.828125 Z M 9.828125 -9.828125 "/></g></g></g><g fill="#2f3699" fill-opacity="1"><g transform="translate(259.251438, 108.492759)"><g><path d="M 9.828125 -9.828125 L 9.828125 -19.671875 L 29.5 -19.671875 L 29.5 -68.84375 L 9.828125 -68.84375 L 9.828125 -78.671875 L 68.84375 -78.671875 L 68.84375 -68.84375 L 49.171875 -68.84375 L 49.171875 -19.671875 L 68.84375 -19.671875 L 68.84375 -9.828125 Z M 9.828125 -9.828125 "/></g></g></g></svg>